<svg width="1748" height="542" viewBox="0 0 1748 542" fill="none" xmlns="http://www.w3.org/2000/svg">
<path d="M157.763 27.2703H1592.39C1633.52 27.2704 1666.87 60.6248 1666.87 101.77V442.311C1666.87 483.455 1633.52 516.811 1592.39 516.811H157.763C116.632 516.811 83.2893 483.455 83.2891 442.311V101.77C83.2891 60.6248 116.632 27.2703 157.763 27.2703ZM186.131 89.1082C163.473 89.1083 145.105 107.483 145.104 130.148V413.932C145.104 436.599 163.473 454.973 186.131 454.973C208.789 454.973 227.157 436.599 227.157 413.932V130.148C227.157 107.483 208.789 89.1082 186.131 89.1082ZM368.5 291.811C323.46 291.811 286.947 328.336 286.947 373.392C286.947 418.449 323.46 454.973 368.5 454.973C413.54 454.973 450.052 418.449 450.052 373.392C450.052 328.337 413.54 291.812 368.5 291.811ZM571.131 291.811C526.089 291.811 489.578 328.337 489.578 373.392C489.578 418.449 526.089 454.973 571.131 454.973C616.172 454.973 652.683 418.449 652.684 373.392C652.684 328.336 616.173 291.811 571.131 291.811ZM773.763 291.811C728.721 291.811 692.21 328.337 692.21 373.392C692.21 418.449 728.721 454.973 773.763 454.973C818.804 454.973 855.315 418.449 855.315 373.392C855.315 328.336 818.804 291.811 773.763 291.811ZM976.395 291.811C931.353 291.811 894.842 328.336 894.842 373.392C894.842 418.449 931.353 454.973 976.395 454.973C1021.44 454.973 1057.95 418.449 1057.95 373.392C1057.95 328.337 1021.44 291.811 976.395 291.811ZM1179.03 291.811C1133.98 291.811 1097.47 328.336 1097.47 373.392C1097.47 418.449 1133.98 454.973 1179.03 454.973C1224.07 454.973 1260.58 418.449 1260.58 373.392C1260.58 328.337 1224.07 291.812 1179.03 291.811ZM1381.66 291.811C1336.62 291.811 1300.1 328.337 1300.1 373.392C1300.1 418.449 1336.62 454.973 1381.66 454.973C1426.7 454.973 1463.21 418.449 1463.21 373.392C1463.21 328.336 1426.7 291.811 1381.66 291.811ZM1564.03 89.1082C1541.37 89.1082 1523 107.483 1523 130.148V413.932C1523 436.599 1541.37 454.973 1564.03 454.973C1586.69 454.973 1605.05 436.599 1605.05 413.932V130.148C1605.05 107.483 1586.68 89.1084 1564.03 89.1082ZM368.5 89.1082C323.46 89.1082 286.947 125.633 286.947 170.689C286.947 215.745 323.46 252.27 368.5 252.27C413.54 252.27 450.052 215.745 450.052 170.689C450.052 125.633 413.54 89.1084 368.5 89.1082ZM571.131 89.1082C526.089 89.1083 489.578 125.633 489.578 170.689C489.578 215.745 526.089 252.27 571.131 252.27C616.173 252.27 652.684 215.745 652.684 170.689C652.684 125.633 616.173 89.1082 571.131 89.1082ZM773.763 89.1082C728.721 89.1082 692.21 125.633 692.21 170.689C692.21 215.745 728.721 252.27 773.763 252.27C818.804 252.27 855.315 215.745 855.315 170.689C855.315 125.633 818.804 89.1082 773.763 89.1082ZM976.395 89.1082C931.353 89.1082 894.842 125.633 894.842 170.689C894.842 215.745 931.353 252.27 976.395 252.27C1021.44 252.27 1057.95 215.745 1057.95 170.689C1057.95 125.633 1021.44 89.1082 976.395 89.1082ZM1179.03 89.1082C1133.98 89.1082 1097.47 125.633 1097.47 170.689C1097.47 215.745 1133.98 252.27 1179.03 252.27C1224.07 252.27 1260.58 215.745 1260.58 170.689C1260.58 125.634 1224.07 89.1084 1179.03 89.1082ZM1381.66 89.1082C1336.62 89.1083 1300.1 125.633 1300.1 170.689C1300.1 215.745 1336.62 252.27 1381.66 252.27C1426.7 252.27 1463.21 215.745 1463.21 170.689C1463.21 125.633 1426.7 89.1082 1381.66 89.1082Z" fill="white" stroke="black"/>
</svg>
